<svg width="200" height="200" viewBox="0 0 200 200" xmlns="http://www.w3.org/2000/svg">
    <!-- 背景圆 -->
    <circle cx="100" cy="100" r="90" fill="#F0F0F0"/>
    <!-- 细胞体 -->
    <circle cx="100" cy="100" r="30" fill="#444"/>
    <!-- 轴突主干 -->
    <path d="M100 130 V190" stroke="#444" stroke-width="4" fill="none"/>
    <!-- 树突（简化路径） -->
    <path d="M70 100 C40 90,10 60" stroke="#444" stroke-width="3" fill="none"/>
    <path d="M70 100 C40 110,10 140" stroke="#444" stroke-width="3" fill="none"/>
    <path d="M100 70 C70 40,60 10" stroke="#444" stroke-width="3" fill="none"/>
    <path d="M130 100 C160 90,190 60" stroke="#444" stroke-width="3" fill="none"/>
    <path d="M130 100 C160 110,190 140" stroke="#444" stroke-width="3" fill="none"/>
    <path d="M100 70 C130 40,140 10" stroke="#444" stroke-width="3" fill="none"/>
    <!-- 轴突侧枝 -->
    <path d="M100 150 C120 145,140 140" stroke="#444" stroke-width="2" fill="none"/>
    <path d="M100 150 C80 145,60 140" stroke="#444" stroke-width="2" fill="none"/>
    <!-- 核心信号点 -->
    <circle cx="100" cy="100" r="10" fill="#000"/>
    <circle cx="100" cy="190" r="8" fill="#000"/>
</svg>
